<svg height="56" viewBox="0 0 56 56" width="56" xmlns="http://www.w3.org/2000/svg"><path d="m27.9999 51.9063c13.0547 0 23.9064-10.8282 23.9064-23.9063 0-13.0547-10.8751-23.9063-23.9298-23.9063-13.0782 0-23.8828 10.8516-23.8828 23.9063 0 13.0781 10.8281 23.9063 23.9062 23.9063zm0-3.9844c-11.0625 0-19.8985-8.8594-19.8985-19.9219 0-11.0391 8.8126-19.9219 19.8751-19.9219 11.039 0 19.9218 8.8828 19.9454 19.9219.0235 11.0625-8.8829 19.9219-19.922 19.9219zm-10.3125-9.3047h20.5781c2.461 0 3.75-1.2422 3.75-3.6797v-12.5156c0-2.461-1.289-3.7031-3.75-3.7031h-2.8125c-.9375 0-1.2187-.1641-1.7578-.7735l-.9609-1.0781c-.586-.6563-1.1953-1.0078-2.4141-1.0078h-4.7812c-1.2188 0-1.8281.3515-2.4376 1.0078l-.9609 1.0781c-.5391.5625-.8203.7735-1.7578.7735h-2.6953c-2.5078 0-3.7734 1.2421-3.7734 3.7031v12.5156c0 2.4375 1.2656 3.6797 3.7734 3.6797zm10.1484-3.3282c-3.8906 0-7.0546-3.1171-7.0546-7.0546 0-3.8907 3.164-7.0078 7.0546-7.0078 3.8907 0 7.0078 3.1171 7.0078 7.0078 0 4.0078-3.1171 7.0546-7.0078 7.0546zm9.211-10.1718c-.8672 0-1.5938-.7031-1.5938-1.5938 0-.8906.7266-1.5937 1.5938-1.5937s1.5703.7031 1.5703 1.5937c.0234.8907-.7031 1.5938-1.5703 1.5938zm-9.211 8.1328c2.7422 0 4.9922-2.2266 4.9922-5.0156 0-2.7656-2.25-4.9922-4.9922-4.9922-2.7656 0-5.0156 2.2266-5.0156 4.9922 0 2.789 2.25 5.0156 5.0156 5.0156z"/></svg>